<svg width="12" height="12" viewBox="0 0 12 12" fill="none" xmlns="http://www.w3.org/2000/svg">
<path d="M4.73849 11.705C5.26151 11.705 5.6569 11.5042 5.92469 11.1025L11.7176 2.37239C11.8138 2.23013 11.8849 2.08996 11.931 1.95188C11.977 1.80962 12 1.67364 12 1.54393C12 1.1841 11.8745 0.887029 11.6234 0.65272C11.3766 0.414226 11.0711 0.294979 10.7071 0.294979C10.4561 0.294979 10.2427 0.345188 10.0669 0.445607C9.8954 0.541841 9.73222 0.709205 9.57741 0.947699L4.71339 8.58577L2.27824 5.66736C2.01464 5.36192 1.6841 5.20921 1.28661 5.20921C0.914226 5.20921 0.606695 5.32845 0.364017 5.56695C0.121339 5.80544 0 6.1046 0 6.46444C0 6.62761 0.0251046 6.78243 0.0753138 6.92887C0.129707 7.07113 0.228033 7.21967 0.370293 7.37448L3.60251 11.1841C3.89958 11.5314 4.27824 11.705 4.73849 11.705Z" fill="white"/>
</svg>
